<svg width="365.3" height="56.45436660526278" viewBox="0 0 369.5483870967742 57.11092286762894" fill="none" xmlns="http://www.w3.org/2000/svg"><defs id="SvgjsDefs1749"></defs><g id="SvgjsG1750" featurekey="5TMTKC-0" transform="matrix(0.6345658302307129,0,0,0.6345658302307129,-3.5028029545266355,-3.172829048201608)" fill="#33425b"><circle xmlns="http://www.w3.org/2000/svg" cx="42.125" cy="19.337" r="9.916"></circle><circle xmlns="http://www.w3.org/2000/svg" cx="27.438" cy="63.042" r="4.958"></circle><circle xmlns="http://www.w3.org/2000/svg" cx="62.284" cy="87.752" r="4.958"></circle><circle xmlns="http://www.w3.org/2000/svg" cx="46.204" cy="33.938" r="4.462"></circle><circle xmlns="http://www.w3.org/2000/svg" cx="64.86" cy="59.99" r="5.356"></circle><path xmlns="http://www.w3.org/2000/svg" d="M74.019,19.736c2.416,0,4.487-1.398,5.505-3.418c-3.036-2.71-6.439-5.016-10.13-6.832c-0.959,1.089-1.561,2.503-1.561,4.068  C67.833,16.97,70.603,19.736,74.019,19.736z"></path><circle xmlns="http://www.w3.org/2000/svg" cx="62.615" cy="30.244" r="11.237"></circle><path xmlns="http://www.w3.org/2000/svg" d="M93.643,59.136c-0.273,1.32-0.608,2.617-0.996,3.893C93.2,61.829,93.546,60.519,93.643,59.136z"></path><path xmlns="http://www.w3.org/2000/svg" d="M82.447,47.098c-6.207,0-11.237,5.031-11.237,11.239c0,6.205,5.03,11.238,11.237,11.238c4.528,0,8.422-2.687,10.199-6.547  c0.388-1.275,0.723-2.572,0.996-3.893c0.019-0.265,0.041-0.528,0.041-0.799C93.684,52.129,88.652,47.098,82.447,47.098z"></path><path xmlns="http://www.w3.org/2000/svg" d="M17.748,33.007c0-3.719-2.476-6.828-5.855-7.863c-2.983,4.52-5.172,9.608-6.373,15.069c1.181,0.652,2.52,1.057,3.965,1.057  C14.047,41.27,17.748,37.571,17.748,33.007z"></path><circle xmlns="http://www.w3.org/2000/svg" cx="71.619" cy="76.304" r="8.263"></circle><path xmlns="http://www.w3.org/2000/svg" d="M58.373,17.711c4.198,0,7.6-3.403,7.6-7.602c0-0.8-0.157-1.554-0.386-2.278C61.562,6.293,57.26,5.321,52.776,5  c-1.233,1.353-2.005,3.135-2.005,5.109C50.771,14.308,54.173,17.711,58.373,17.711z"></path><path xmlns="http://www.w3.org/2000/svg" d="M13.703,69.904c4.197,0,7.6-3.403,7.6-7.602c0-4.196-3.403-7.602-7.6-7.602c-4.12,0-7.454,3.283-7.58,7.371  c0.479,1.719,1.053,3.397,1.726,5.027C9.243,68.799,11.333,69.904,13.703,69.904z"></path><circle xmlns="http://www.w3.org/2000/svg" cx="23.286" cy="52.574" r="4.481"></circle><path xmlns="http://www.w3.org/2000/svg" d="M39.335,88.411c0-2.474-2.007-4.48-4.48-4.48c-2.476,0-4.482,2.007-4.482,4.48c0,1.048,0.375,2,0.979,2.763  c1.395,0.615,2.826,1.164,4.292,1.638C37.739,92.438,39.335,90.616,39.335,88.411z"></path><circle xmlns="http://www.w3.org/2000/svg" cx="13.015" cy="47.207" r="5.802"></circle><circle xmlns="http://www.w3.org/2000/svg" cx="26.313" cy="30.271" r="7.603"></circle><path xmlns="http://www.w3.org/2000/svg" d="M62.137,71.661c-0.032-8.119-6.643-14.678-14.762-14.646c-8.122,0.032-14.68,6.64-14.646,14.76  c0.03,8.123,6.64,14.679,14.76,14.647C55.61,86.391,62.169,79.783,62.137,71.661z"></path><path xmlns="http://www.w3.org/2000/svg" d="M81.061,17.76c-3.272,3.114-5.316,7.506-5.298,12.381c0.038,9.399,7.686,16.989,17.085,16.952  c0.55-0.001,1.096-0.036,1.633-0.088C93.744,35.57,88.751,25.299,81.061,17.76z"></path><path xmlns="http://www.w3.org/2000/svg" d="M70.2,42.307c-2.465,0.01-4.453,2.015-4.444,4.48c0.01,2.462,2.015,4.453,4.48,4.445c2.463-0.011,4.451-2.018,4.442-4.483  C74.671,44.286,72.664,42.298,70.2,42.307z"></path><circle xmlns="http://www.w3.org/2000/svg" cx="23.67" cy="42.116" r="2.643"></circle><circle xmlns="http://www.w3.org/2000/svg" cx="37.26" cy="46.034" r="9.454"></circle><path xmlns="http://www.w3.org/2000/svg" d="M30.479,11.066c-0.002-0.646-0.07-1.278-0.196-1.886c-5.257,2.486-9.955,5.957-13.856,10.178  c1.373,0.766,2.952,1.206,4.635,1.199C26.284,20.536,30.5,16.285,30.479,11.066z"></path><path xmlns="http://www.w3.org/2000/svg" d="M31.842,78.716c-0.022-5.22-4.271-9.435-9.491-9.416c-4.465,0.019-8.185,3.132-9.16,7.292  c3.252,4.425,7.294,8.228,11.917,11.214C29.015,86.632,31.857,83.005,31.842,78.716z"></path><circle xmlns="http://www.w3.org/2000/svg" cx="55.339" cy="48.772" r="7.603"></circle><path xmlns="http://www.w3.org/2000/svg" d="M48.537,87.771c-3.811,0.016-6.958,2.778-7.604,6.402C43.715,94.709,46.585,95,49.522,95c2.28,0,4.52-0.173,6.71-0.5  C55.717,90.694,52.482,87.757,48.537,87.771z"></path></g><g id="SvgjsG1751" featurekey="7UBp9i-0" transform="matrix(2.066660165786743,0,0,2.066660165786743,76.28933263116404,2.178704646780817)" fill="#33425b"><path d="M8.5 5.720000000000001 l5.34 14.28 l-3.26 0 l-1.08 -3.18 l-5.34 0 l-1.12 3.18 l-3.18 0 l5.42 -14.28 l3.22 0 z M6.84 9.24 l-1.86 5.24 l3.7 0 l-1.8 -5.24 l-0.04 0 z M21.54 5.720000000000001 c1.52 0 2.72 0.41334 3.6 1.24 s1.32 1.94 1.32 3.34 c0 1.4133 -0.44 2.53 -1.32 3.35 s-2.0734 1.23 -3.58 1.23 l-3.34 0 l0 5.12 l-3.14 0 l0 -14.28 l6.46 0 z M20.72 12.440000000000001 c0.90666 0 1.5833 -0.16666 2.03 -0.5 s0.67 -0.88 0.67 -1.64 c0 -0.73334 -0.21666 -1.2733 -0.65 -1.62 s-1.11 -0.52 -2.03 -0.52 l-2.52 0 l0 4.28 l2.5 0 z M31.56 5.720000000000001 l0 14.28 l-3.14 0 l0 -14.28 l3.14 0 z M46 5.720000000000001 c2.0266 0 3.62 0.62666 4.78 1.88 s1.74 2.98 1.74 5.18 c0 2.28 -0.58334 4.0534 -1.75 5.32 s-2.73 1.9 -4.69 1.9 l-6.2 0 l0 -14.28 l6.12 0 z M45.8 17.36 c1.1333 0 2.0134 -0.37334 2.64 -1.12 s0.94 -1.8067 0.94 -3.18 c0 -1.5733 -0.33666 -2.75 -1.01 -3.53 s-1.71 -1.17 -3.11 -1.17 l-2.24 0 l0 9 l2.78 0 z M59.16 9.38 c3.0134 0.01334 4.52 0.9933 4.52 2.94 l0 5.48 c0 1.0133 0.12 1.7467 0.36 2.2 l-2.88 0 c-0.10666 -0.32 -0.17332 -0.65334 -0.19998 -1 c-0.84 0.85334 -2 1.28 -3.48 1.28 c-1.08 0 -1.9367 -0.27334 -2.57 -0.82 s-0.95 -1.3067 -0.95 -2.28 c0 -0.94666 0.3 -1.68 0.9 -2.2 c0.61334 -0.54666 1.7267 -0.89332 3.34 -1.04 c1.1467 -0.12 1.8733 -0.27 2.18 -0.45 s0.46 -0.45666 0.46 -0.83 c0 -0.46666 -0.14 -0.81332 -0.42 -1.04 s-0.74666 -0.34 -1.4 -0.34 c-0.6 0 -1.0533 0.12334 -1.36 0.37 s-0.48666 0.64332 -0.54 1.19 l-2.84 0 c0.06666 -1.1333 0.53332 -1.9933 1.4 -2.58 s2.0266 -0.88 3.48 -0.88 z M56.8 17.06 c0 0.88 0.58 1.32 1.74 1.32 c1.52 -0.01334 2.2866 -0.79334 2.3 -2.34 l0 -1.1 c-0.22666 0.22666 -0.8 0.39332 -1.72 0.49998 c-0.8 0.09334 -1.3867 0.25668 -1.76 0.49002 s-0.56 0.61 -0.56 1.13 z M70.12 9.38 c1.3867 0 2.47 0.28002 3.25 0.84002 s1.2167 1.38 1.31 2.46 l-2.7 0 c-0.04 -0.49334 -0.22 -0.85 -0.54 -1.07 s-0.78666 -0.33 -1.4 -0.33 c-0.53334 0 -0.93 0.08 -1.19 0.24 s-0.39 0.4 -0.39 0.72 c0 0.24 0.08666 0.44 0.26 0.6 s0.43668 0.3 0.79002 0.42 s0.74334 0.22 1.17 0.3 c1.2933 0.25334 2.2066 0.51334 2.74 0.78 s0.92334 0.58666 1.17 0.96 s0.37 0.83334 0.37 1.38 c0 1.16 -0.42334 2.05 -1.27 2.67 s-1.9967 0.93 -3.45 0.93 c-1.52 0 -2.7034 -0.32666 -3.55 -0.98 s-1.2833 -1.54 -1.31 -2.66 l2.7 0 c0 0.53334 0.20666 0.95668 0.62 1.27 s0.93334 0.47 1.56 0.47 c0.53334 0 0.97668 -0.11666 1.33 -0.35 s0.53 -0.55668 0.53 -0.97002 c0 -0.26666 -0.11 -0.48666 -0.33 -0.66 s-0.53 -0.32668 -0.93 -0.46002 s-1.02 -0.28668 -1.86 -0.46002 c-0.66666 -0.13334 -1.26 -0.31334 -1.78 -0.54 s-0.91666 -0.52332 -1.19 -0.88998 s-0.41 -0.81666 -0.41 -1.35 c0 -0.68 0.16334 -1.2733 0.49 -1.78 s0.82666 -0.89 1.5 -1.15 s1.51 -0.39 2.51 -0.39 z M79.46 5.720000000000001 l0 5.38 l0.06 0 c0.32 -0.53334 0.75334 -0.95334 1.3 -1.26 s1.1267 -0.46 1.74 -0.46 c1.32 0 2.2766 0.33334 2.87 1 s0.89 1.72 0.89 3.16 l0 6.46 l-2.84 0 l0 -5.88 c0 -0.84 -0.13666 -1.4667 -0.41 -1.88 s-0.74334 -0.62 -1.41 -0.62 c-0.76 0 -1.3167 0.23 -1.67 0.69 s-0.53 1.2167 -0.53 2.27 l0 5.42 l-2.84 0 l0 -14.28 l2.84 0 z M91.32 5.720000000000001 l0.000019531 5.2 l0.04 0 c0.30666 -0.46666 0.74332 -0.84 1.31 -1.12 s1.2167 -0.42 1.95 -0.42 c1.2667 0 2.2966 0.50666 3.09 1.52 s1.19 2.32 1.19 3.92 c0 1.6133 -0.39334 2.9266 -1.18 3.94 s-1.8267 1.52 -3.12 1.52 c-1.68 0 -2.8066 -0.53334 -3.38 -1.6 l-0.04 0 l0 1.32 l-2.7 0 l0 -14.28 l2.84 0 z M91.21999999999998 14.84 c0 1 0.21998 1.8 0.65998 2.4 s1.0267 0.9 1.76 0.9 c0.72 0 1.3033 -0.29334 1.75 -0.88 s0.67 -1.3933 0.67 -2.42 c0 -1.0133 -0.21666 -1.82 -0.65 -2.42 s-1.03 -0.9 -1.79 -0.9 c-0.74666 0 -1.3333 0.30666 -1.76 0.92 s-0.64 1.4133 -0.64 2.4 z M105.71999999999998 9.38 c1.6533 0 2.96 0.50334 3.92 1.51 s1.44 2.3234 1.44 3.95 c0 1.64 -0.49 2.9566 -1.47 3.95 s-2.2766 1.49 -3.89 1.49 c-1.64 0 -2.94 -0.50334 -3.9 -1.51 s-1.44 -2.3166 -1.44 -3.93 c0 -1.6667 0.49 -2.9934 1.47 -3.98 s2.27 -1.48 3.87 -1.48 z M103.21999999999998 14.84 c0 1.0533 0.21334 1.8666 0.64 2.44 s1.0467 0.86 1.86 0.86 c0.84 0 1.47 -0.29334 1.89 -0.88 s0.63 -1.3933 0.63 -2.42 c0 -1.0667 -0.21666 -1.8867 -0.65 -2.46 s-1.0633 -0.86 -1.89 -0.86 c-0.8 0 -1.4133 0.28666 -1.84 0.86 s-0.64 1.3933 -0.64 2.46 z M117.67999999999999 9.38 c3.0134 0.01334 4.52 0.9933 4.52 2.94 l0 5.48 c0 1.0133 0.12 1.7467 0.36 2.2 l-2.88 0 c-0.10666 -0.32 -0.17332 -0.65334 -0.19998 -1 c-0.84 0.85334 -2 1.28 -3.48 1.28 c-1.08 0 -1.9367 -0.27334 -2.57 -0.82 s-0.95 -1.3067 -0.95 -2.28 c0 -0.94666 0.3 -1.68 0.9 -2.2 c0.61334 -0.54666 1.7267 -0.89332 3.34 -1.04 c1.1467 -0.12 1.8733 -0.27 2.18 -0.45 s0.46 -0.45666 0.46 -0.83 c0 -0.46666 -0.14 -0.81332 -0.42 -1.04 s-0.74666 -0.34 -1.4 -0.34 c-0.6 0 -1.0533 0.12334 -1.36 0.37 s-0.48666 0.64332 -0.54 1.19 l-2.84 0 c0.06666 -1.1333 0.53332 -1.9933 1.4 -2.58 s2.0266 -0.88 3.48 -0.88 z M115.32 17.06 c0 0.88 0.58 1.32 1.74 1.32 c1.52 -0.01334 2.2866 -0.79334 2.3 -2.34 l0 -1.1 c-0.22666 0.22666 -0.8 0.39332 -1.72 0.49998 c-0.8 0.09334 -1.3867 0.25668 -1.76 0.49002 s-0.56 0.61 -0.56 1.13 z M130.44 9.38 c0.24 0 0.44668 0.03334 0.62002 0.1 l0 2.64 c-0.30666 -0.06666 -0.64666 -0.1 -1.02 -0.1 c-1.8667 0 -2.8 1.1067 -2.8 3.32 l0 4.66 l-2.84 0 l0 -10.34 l2.7 0 l0 1.92 l0.04 0 c0.28 -0.66666 0.72334 -1.2 1.33 -1.6 s1.2633 -0.6 1.97 -0.6 z M141.89999999999998 5.720000000000001 l0 14.28 l-2.7 0 l0 -1.32 l-0.04 0 c-0.61334 1.0667 -1.66 1.6 -3.14 1.6 c-1.4267 0 -2.5566 -0.52 -3.39 -1.56 s-1.25 -2.3666 -1.25 -3.98 c0 -1.5733 0.42334 -2.86 1.27 -3.86 s1.95 -1.5 3.31 -1.5 c0.62666 0 1.2167 0.13 1.77 0.39 s0.98334 0.64334 1.29 1.15 l0.04 0 l0 -5.2 l2.84 0 z M134.21999999999997 14.82 c0 0.94666 0.22332 1.7367 0.66998 2.37 s1.0567 0.95 1.83 0.95 c0.81334 0 1.4233 -0.29666 1.83 -0.89 s0.61 -1.41 0.61 -2.45 s-0.21334 -1.8467 -0.64 -2.42 s-1.0333 -0.86 -1.82 -0.86 c-0.81334 0 -1.43 0.3 -1.85 0.9 s-0.63 1.4 -0.63 2.4 z"></path></g></svg>
